<svg xmlns="http://www.w3.org/2000/svg" viewBox="0 0 512 512"><rect x="40" y="40" width="432" height="432" rx="100" ry="100" fill="#ffffff" stroke="#0d9488" stroke-width="16"/><g transform="translate(83.5,126.73) scale(3.6934)"><path d="M145.0 0.0H420.0V1154.0L710.0 0.0H995.0L1266.0 1074.687255859375V0.0H1562.0V623.0H2174.0V871.0H1562.0V1218.0H2271.0V1466.0H1117.0L854.0 466.0L588.0 1466.0H145.0Z" transform="translate(3.857,61.0) scale(0.03547066848567531,-0.03547066848567531)" fill="#0d9488" stroke="#111111" stroke-width="24" stroke-linejoin="round"/><g fill="#000000"><circle cx="9.0" cy="61.0" r="2.15"/><circle cx="18.75" cy="61.0" r="2.15"/><circle cx="18.75" cy="20.07" r="2.15"/><circle cx="29.04" cy="61.0" r="2.15"/><circle cx="39.15" cy="61.0" r="2.15"/><circle cx="48.76" cy="22.88" r="2.15"/><circle cx="48.76" cy="61.0" r="2.15"/><circle cx="59.26" cy="61.0" r="2.15"/><circle cx="59.26" cy="38.9" r="2.15"/><circle cx="80.97" cy="38.9" r="2.15"/><circle cx="80.97" cy="30.11" r="2.15"/><circle cx="59.26" cy="30.11" r="2.15"/><circle cx="59.26" cy="17.8" r="2.15"/><circle cx="84.41" cy="17.8" r="2.15"/><circle cx="84.41" cy="9.0" r="2.15"/><circle cx="43.48" cy="9.0" r="2.15"/><circle cx="34.15" cy="44.47" r="2.15"/><circle cx="24.71" cy="9.0" r="2.15"/><circle cx="9.0" cy="9.0" r="2.15"/></g></g></svg>